<?xml version="1.0" standalone="no"?><!DOCTYPE svg PUBLIC "-//W3C//DTD SVG 1.1//EN" "http://www.w3.org/Graphics/SVG/1.1/DTD/svg11.dtd"><svg t="1559542769924" class="icon" style="" viewBox="0 0 1024 1024" version="1.1" xmlns="http://www.w3.org/2000/svg" p-id="4920" xmlns:xlink="http://www.w3.org/1999/xlink" width="32" height="32"><defs><style type="text/css"></style></defs><path d="M510.171429 405.942857c-58.514286 0-106.057143 47.542857-106.057143 106.057143 0 58.514286 47.542857 106.057143 106.057143 106.057143s106.057143-47.542857 106.057142-106.057143c0-58.514286-47.542857-106.057143-106.057142-106.057143z m0 170.057143c-34.742857 0-64-27.428571-64-64 0-34.742857 27.428571-64 64-64 34.742857 0 64 27.428571 64 64 0 34.742857-29.257143 64-64 64z" fill="#1ABC9C" p-id="4921"></path><path d="M510.171429 102.4C283.428571 102.4 100.571429 285.257143 100.571429 512c0 226.742857 182.857143 409.6 409.6 409.6s409.6-182.857143 409.6-409.6c0-226.742857-182.857143-409.6-409.6-409.6z m170.057142 486.4c-27.428571 21.942857-84.114286 67.657143-170.057142 69.485714s-148.114286-49.371429-171.885715-71.314285c-23.771429-21.942857-76.8-85.942857-76.8-85.942858s38.4-29.257143 85.942857-71.314285 104.228571-65.828571 164.571429-65.828572 124.342857 27.428571 162.742857 62.171429c38.4 32.914286 87.771429 85.942857 87.771429 85.942857s-54.857143 56.685714-82.285715 76.8z" fill="#1ABC9C" p-id="4922"></path></svg>